<svg width="41" height="41" viewBox="0 0 41 41" fill="none" xmlns="http://www.w3.org/2000/svg">
<path d="M3.71436 13C3.71436 11.1144 3.71436 10.1716 4.30014 9.58579C4.88593 9 5.82874 9 7.71436 9H33.1837C35.0694 9 36.0122 9 36.598 9.58579C37.1837 10.1716 37.1837 11.1144 37.1837 13V16.3333C37.1837 16.8047 37.1837 17.0404 37.0373 17.1869C36.8908 17.3333 36.6551 17.3333 36.1837 17.3333H4.71436C4.24295 17.3333 4.00725 17.3333 3.8608 17.1869C3.71436 17.0404 3.71436 16.8047 3.71436 16.3333V13Z" fill="white"/>
<path fill-rule="evenodd" clip-rule="evenodd" d="M3.71436 33.3333C3.71436 35.2189 3.71436 36.1617 4.30014 36.7475C4.88593 37.3333 5.82874 37.3333 7.71436 37.3333H33.1837C35.0694 37.3333 36.0122 37.3333 36.598 36.7475C37.1837 36.1617 37.1837 35.2189 37.1837 33.3333V21.6666C37.1837 21.1952 37.1837 20.9595 37.0373 20.8131C36.8908 20.6666 36.6551 20.6666 36.1837 20.6666H4.71436C4.24295 20.6666 4.00725 20.6666 3.8608 20.8131C3.71436 20.9595 3.71436 21.1952 3.71436 21.6666V33.3333ZM12.0817 25C12.0817 24.5286 12.0817 24.2929 12.2281 24.1464C12.3746 24 12.6103 24 13.0817 24H17.7756C18.247 24 18.4827 24 18.6291 24.1464C18.7756 24.2929 18.7756 24.5286 18.7756 25V26.3333C18.7756 26.8047 18.7756 27.0404 18.6291 27.1868C18.4827 27.3333 18.247 27.3333 17.7756 27.3333H13.0817C12.6103 27.3333 12.3746 27.3333 12.2281 27.1868C12.0817 27.0404 12.0817 26.8047 12.0817 26.3333V25ZM12.2281 30.8131C12.0817 30.9595 12.0817 31.1952 12.0817 31.6666V33C12.0817 33.4714 12.0817 33.7071 12.2281 33.8535C12.3746 34 12.6103 34 13.0817 34H17.7756C18.247 34 18.4827 34 18.6291 33.8535C18.7756 33.7071 18.7756 33.4714 18.7756 33V31.6666C18.7756 31.1952 18.7756 30.9595 18.6291 30.8131C18.4827 30.6666 18.247 30.6666 17.7756 30.6666H13.0817C12.6103 30.6666 12.3746 30.6666 12.2281 30.8131ZM22.1225 25C22.1225 24.5286 22.1225 24.2929 22.269 24.1464C22.4154 24 22.6511 24 23.1225 24H27.8164C28.2878 24 28.5235 24 28.6699 24.1464C28.8164 24.2929 28.8164 24.5286 28.8164 25V26.3333C28.8164 26.8047 28.8164 27.0404 28.6699 27.1868C28.5235 27.3333 28.2878 27.3333 27.8164 27.3333H23.1225C22.6511 27.3333 22.4154 27.3333 22.269 27.1868C22.1225 27.0404 22.1225 26.8047 22.1225 26.3333V25ZM22.269 30.8131C22.1225 30.9595 22.1225 31.1952 22.1225 31.6666V33C22.1225 33.4714 22.1225 33.7071 22.269 33.8535C22.4154 34 22.6511 34 23.1225 34H27.8164C28.2878 34 28.5235 34 28.6699 33.8535C28.8164 33.7071 28.8164 33.4714 28.8164 33V31.6666C28.8164 31.1952 28.8164 30.9595 28.6699 30.8131C28.5235 30.6666 28.2878 30.6666 27.8164 30.6666H23.1225C22.6511 30.6666 22.4154 30.6666 22.269 30.8131Z" fill="white"/>
<path d="M12.0815 5.66663L12.0815 10.6666" stroke="white" stroke-width="2" stroke-linecap="round"/>
<path d="M28.8164 5.66663L28.8164 10.6666" stroke="white" stroke-width="2" stroke-linecap="round"/>
</svg>
