<svg width="43" height="50" viewBox="0 0 43 50" fill="none" xmlns="http://www.w3.org/2000/svg">
<path fill-rule="evenodd" clip-rule="evenodd" d="M0.842988 15.8946C0 17.7275 0 19.8126 0 23.9829V37.0069C0 42.7985 0 45.6942 1.7992 47.4934C3.5984 49.2926 6.49417 49.2926 12.2857 49.2926H12.8217V33.9357C12.8217 31.6871 14.6445 29.8642 16.8931 29.8642H26.1074C28.356 29.8642 30.1788 31.6871 30.1788 33.9357V49.2926H30.7143C36.5058 49.2926 39.4016 49.2926 41.2008 47.4934C43 45.6942 43 42.7985 43 37.0069V23.9829C43 19.8126 43 17.7275 42.157 15.8946C41.314 14.0618 39.7309 12.7048 36.5646 9.99085L33.4932 7.3582C27.7701 2.45273 24.9086 0 21.5 0C18.0914 0 15.2299 2.45273 9.50684 7.3582L6.43542 9.99085C3.26912 12.7048 1.68598 14.0618 0.842988 15.8946ZM28.1788 49.2926V33.9357C28.1788 32.7917 27.2514 31.8642 26.1074 31.8642H16.8931C15.7491 31.8642 14.8217 32.7917 14.8217 33.9357V49.2926H28.1788Z" fill="white"/>
</svg>
