<svg width="43" height="47" viewBox="0 0 43 47" fill="none" xmlns="http://www.w3.org/2000/svg">
<path fill-rule="evenodd" clip-rule="evenodd" d="M33.4551 9.37161C33.7149 9.5556 34.09 9.5556 34.8403 9.5556H39C41.2091 9.5556 43 11.3465 43 13.5556V19.8889C43 22.0981 41.2091 23.8889 39 23.8889H29.1063L22.9142 17.6969L21.5 16.2826L20.0858 17.6969L13.8937 23.8889H7.16667C3.20863 23.8889 0 20.6803 0 16.7223C0 12.7642 3.20863 9.5556 7.16667 9.5556H8.15958C8.90984 9.5556 9.28497 9.5556 9.5447 9.37161C9.80444 9.18762 9.94593 8.78529 10.2289 7.98064C11.8636 3.33221 16.2926 0 21.4999 0C26.7072 0 31.1362 3.33221 32.7709 7.98063C33.0539 8.78529 33.1954 9.18762 33.4551 9.37161Z" fill="white"/>
<path d="M21.5 22L20.4012 20.9789L21.5 19.7966L22.5988 20.9789L21.5 22ZM23 45C23 45.8284 22.3284 46.5 21.5 46.5C20.6716 46.5 20 45.8284 20 45L23 45ZM10.9012 31.2011L20.4012 20.9789L22.5988 23.0211L13.0988 33.2434L10.9012 31.2011ZM22.5988 20.9789L32.0988 31.2011L29.9012 33.2434L20.4012 23.0211L22.5988 20.9789ZM23 22L23 45L20 45L20 22L23 22Z" fill="white"/>
</svg>
