<svg width="42" height="34" viewBox="0 0 42 34" fill="none" xmlns="http://www.w3.org/2000/svg">
<path d="M21.2952 14.5157C21.2601 14.4709 21.2153 14.4346 21.1641 14.4097C21.1129 14.3848 21.0568 14.3718 20.9999 14.3718C20.9429 14.3718 20.8868 14.3848 20.8356 14.4097C20.7844 14.4346 20.7396 14.4709 20.7046 14.5157L15.4546 21.1579C15.4113 21.2132 15.3844 21.2795 15.3771 21.3493C15.3697 21.4191 15.3821 21.4896 15.4129 21.5527C15.4437 21.6158 15.4917 21.6689 15.5513 21.706C15.6108 21.7431 15.6797 21.7627 15.7499 21.7626H19.2139V33.1251C19.2139 33.3313 19.3827 33.5001 19.5889 33.5001H22.4014C22.6077 33.5001 22.7764 33.3313 22.7764 33.1251V21.7673H26.2499C26.5639 21.7673 26.7374 21.4063 26.5452 21.1626L21.2952 14.5157Z" fill="#22242E"/>
<path d="M35.0344 10.1891C32.8875 4.52656 27.4172 0.5 21.0094 0.5C14.6016 0.5 9.13125 4.52188 6.98438 10.1844C2.96719 11.2391 0 14.9 0 19.25C0 24.4297 4.19531 28.625 9.37031 28.625H11.25C11.4563 28.625 11.625 28.4562 11.625 28.25V25.4375C11.625 25.2313 11.4563 25.0625 11.25 25.0625H9.37031C7.79062 25.0625 6.30469 24.4344 5.19844 23.2953C4.09687 22.1609 3.51094 20.6328 3.5625 19.0484C3.60469 17.8109 4.02656 16.6484 4.79062 15.6688C5.57344 14.6703 6.67031 13.9437 7.88906 13.6203L9.66563 13.1562L10.3172 11.4406C10.7203 10.3719 11.2828 9.37344 11.9906 8.46875C12.6894 7.57207 13.5171 6.78383 14.4469 6.12969C16.3734 4.775 18.6422 4.05781 21.0094 4.05781C23.3766 4.05781 25.6453 4.775 27.5719 6.12969C28.5047 6.78594 29.3297 7.57344 30.0281 8.46875C30.7359 9.37344 31.2984 10.3766 31.7016 11.4406L32.3484 13.1516L34.1203 13.6203C36.6609 14.3047 38.4375 16.6156 38.4375 19.25C38.4375 20.8016 37.8328 22.2641 36.7359 23.3609C36.198 23.902 35.5581 24.331 34.8533 24.6231C34.1484 24.9151 33.3926 25.0645 32.6297 25.0625H30.75C30.5438 25.0625 30.375 25.2313 30.375 25.4375V28.25C30.375 28.4562 30.5438 28.625 30.75 28.625H32.6297C37.8047 28.625 42 24.4297 42 19.25C42 14.9047 39.0422 11.2484 35.0344 10.1891Z" fill="#22242E"/>
</svg>
