<svg width="38" height="38" viewBox="0 0 38 38" fill="none" xmlns="http://www.w3.org/2000/svg">
<path d="M19 25.3333L17.9393 26.3939L19 27.4546L20.0607 26.3939L19 25.3333ZM20.5 6.33325C20.5 5.50483 19.8284 4.83325 19 4.83325C18.1716 4.83325 17.5 5.50483 17.5 6.33325L20.5 6.33325ZM8.43934 16.8939L17.9393 26.3939L20.0607 24.2726L10.5607 14.7726L8.43934 16.8939ZM20.0607 26.3939L29.5607 16.8939L27.4393 14.7726L17.9393 24.2726L20.0607 26.3939ZM20.5 25.3333L20.5 6.33325L17.5 6.33325L17.5 25.3333L20.5 25.3333Z" fill="#0A60BD"/>
<path d="M9.5 33.25H28.5" stroke="#0A60BD" stroke-width="3" stroke-linecap="round"/>
</svg>
