<svg xmlns="http://www.w3.org/2000/svg" width="27" height="34" viewBox="0 0 27 34">
  <g id="ic_Plus" transform="translate(-0.072 -0.255)">
    <path id="Shape" d="M20.249,34H6.749A6.782,6.782,0,0,1,0,27.2V6.8A6.782,6.782,0,0,1,6.749,0H17.125a3.353,3.353,0,0,1,2.621,1.259l6.5,8.083A3.426,3.426,0,0,1,27,11.483V27.2A6.783,6.783,0,0,1,20.249,34ZM6.749,3.4A3.391,3.391,0,0,0,3.375,6.8V27.2a3.391,3.391,0,0,0,3.375,3.4h13.5a3.392,3.392,0,0,0,3.376-3.4V12.58H19.617a3.392,3.392,0,0,1-3.376-3.4V3.4ZM19.617,6.5V9.18h2.157ZM13.5,26.35A1.66,1.66,0,0,1,12.473,26L9.112,23.46a1.71,1.71,0,0,1-.337-2.379,1.676,1.676,0,0,1,2.362-.34l.676.509V14.639a1.687,1.687,0,1,1,3.375,0V21.25l.674-.509a1.678,1.678,0,0,1,2.363.34,1.71,1.71,0,0,1-.337,2.379L14.527,26A1.666,1.666,0,0,1,13.5,26.35Z" transform="translate(0.072 0.255)" fill="#fff"/>
  </g>
</svg>
