<svg width="31" height="31" viewBox="0 0 31 31" fill="none" xmlns="http://www.w3.org/2000/svg">
<path fill-rule="evenodd" clip-rule="evenodd" d="M17.36 6.48548L21.8455 2C23.1788 0.666667 23.8455 0 24.6739 0C25.5023 0 26.169 0.666667 27.5023 2L28.9189 3.41661C30.2522 4.74994 30.9189 5.41661 30.9189 6.24503C30.9189 7.07346 30.2522 7.74013 28.9189 9.07346L24.4719 13.5205C21.5363 11.8099 19.0918 9.38365 17.36 6.48548ZM15.9057 7.93972L2.54151 21.3039C2.11645 21.729 1.90392 21.9415 1.76418 22.2026C1.62445 22.4637 1.5655 22.7585 1.44761 23.3479L0.0638517 30.2667C-0.00267029 30.5993 -0.0359313 30.7656 0.0586767 30.8602C0.153285 30.9548 0.31959 30.9216 0.6522 30.8551L7.57101 29.4713L7.57103 29.4713C8.16047 29.3534 8.45519 29.2945 8.71628 29.1547C8.97738 29.015 9.1899 28.8025 9.61495 28.3774L9.61497 28.3774L23.0139 14.9785C20.129 13.2038 17.6988 10.7907 15.9057 7.93972Z" fill="#0A60BD"/>
</svg>
