<svg width="43" height="49" viewBox="0 0 43 49" fill="none" xmlns="http://www.w3.org/2000/svg">
<path d="M1.375 23.6839C1.375 19.7804 1.375 17.8286 2.16408 16.113C2.95315 14.3974 4.43505 13.1272 7.39885 10.5868L10.2738 8.12248C15.6309 3.53074 18.3094 1.23486 21.5 1.23486C24.6906 1.23486 27.3691 3.53074 32.7262 8.12248L35.6012 10.5868C38.565 13.1272 40.0468 14.3974 40.8359 16.113C41.625 17.8286 41.625 19.7804 41.625 23.6839V35.8751C41.625 41.2962 41.625 44.0068 39.9409 45.6909C38.2567 47.3751 35.5462 47.3751 30.125 47.3751H12.875C7.45385 47.3751 4.74327 47.3751 3.05914 45.6909C1.375 44.0068 1.375 41.2962 1.375 35.8751V23.6839Z" stroke="#6800FF" stroke-width="2"/>
<path d="M28.6875 47.375V31.125C28.6875 30.5727 28.2398 30.125 27.6875 30.125H15.3125C14.7602 30.125 14.3125 30.5727 14.3125 31.125V47.375" stroke="#6800FF" stroke-width="2" stroke-linecap="round" stroke-linejoin="round"/>
</svg>
