<svg width="43" height="43" viewBox="0 0 43 43" fill="none" xmlns="http://www.w3.org/2000/svg">
<path d="M42 21.5C42 25.5545 40.7977 29.518 38.5451 32.8892C36.2926 36.2604 33.0909 38.8879 29.345 40.4395C25.5991 41.9911 21.4773 42.3971 17.5007 41.6061C13.524 40.8151 9.87129 38.8627 7.00432 35.9957C4.13734 33.1287 2.18491 29.476 1.39391 25.4993C0.602914 21.5227 1.00888 17.4009 2.56048 13.655C4.11207 9.9091 6.73961 6.70744 10.1108 4.45487C13.482 2.2023 17.4455 1 21.5 1C26.9369 1 32.1512 3.15981 35.9957 7.00431C39.8402 10.8488 42 16.0631 42 21.5Z" fill="white" stroke="white" stroke-width="2" stroke-linecap="round" stroke-linejoin="round"/>
<path d="M22 13L22 24L22 13Z" fill="#0A60BD"/>
<path d="M22 13L22 24" stroke="#0A60BD" stroke-width="3" stroke-linecap="round" stroke-linejoin="round"/>
<circle cx="22" cy="30" r="2" fill="#0A60BD"/>
</svg>
