<svg width="40" height="42" viewBox="0 0 40 42" fill="none" xmlns="http://www.w3.org/2000/svg">
<path fill-rule="evenodd" clip-rule="evenodd" d="M4.57939 4.23668L32.7204 1.26108C35.8166 0.933694 37.3647 0.769999 38.358 1.66381C39.3513 2.55763 39.3513 4.11436 39.3513 7.22782V18.8951H25.4483L31.3351 13.239L28.5638 10.3546L19.0943 19.4529L17.5933 20.8951L19.0943 22.3373L28.5638 31.4356L31.3351 28.5512L25.4483 22.8951H39.3513V34.4443C39.3513 37.5578 39.3513 39.1145 38.358 40.0083C37.3647 40.9021 35.8166 40.7384 32.7204 40.411L4.57939 37.4354C2.87752 37.2555 2.02658 37.1655 1.51329 36.5951C1 36.0247 1 35.169 1 33.4576V8.2145C1 6.50314 1 5.64747 1.51329 5.07704C2.02658 4.50661 2.87752 4.41664 4.57939 4.23668Z" fill="#6800FF"/>
<path d="M32.7204 1.26108L32.7729 1.75831L32.7204 1.26108ZM4.57939 4.23668L4.52681 3.73945L4.57939 4.23668ZM38.358 1.66381L38.6924 1.29214V1.29214L38.358 1.66381ZM39.3513 18.8951V19.3951H39.8513V18.8951H39.3513ZM25.4483 18.8951L25.1018 18.5346L24.2062 19.3951H25.4483V18.8951ZM31.3351 13.239L31.6815 13.5995L32.0421 13.2531L31.6957 12.8926L31.3351 13.239ZM28.5638 10.3546L28.9243 10.0082L28.5779 9.64764L28.2174 9.99405L28.5638 10.3546ZM19.0943 19.4529L19.4407 19.8135L19.0943 19.4529ZM17.5933 20.8951L17.2469 20.5346L16.8716 20.8951L17.2469 21.2557L17.5933 20.8951ZM19.0943 22.3373L19.4407 21.9768L19.0943 22.3373ZM28.5638 31.4356L28.2174 31.7962L28.5779 32.1426L28.9243 31.782L28.5638 31.4356ZM31.3351 28.5512L31.6957 28.8976L32.0421 28.5371L31.6815 28.1907L31.3351 28.5512ZM25.4483 22.8951V22.3951H24.2062L25.1018 23.2557L25.4483 22.8951ZM39.3513 22.8951H39.8513V22.3951H39.3513V22.8951ZM38.358 40.0083L38.6924 40.38L38.358 40.0083ZM32.7204 40.411L32.6678 40.9083L32.7204 40.411ZM4.57939 37.4354L4.52681 37.9327H4.52681L4.57939 37.4354ZM1.51329 5.07704L1.88497 5.41149H1.88497L1.51329 5.07704ZM32.6678 0.763855L4.52681 3.73945L4.63196 4.73391L32.7729 1.75831L32.6678 0.763855ZM38.6924 1.29214C38.0719 0.733758 37.2999 0.53656 36.3444 0.504774C35.4032 0.473464 34.2011 0.601726 32.6678 0.763855L32.7729 1.75831C34.3358 1.59305 35.4559 1.47577 36.3111 1.50422C37.152 1.53219 37.6508 1.70005 38.0235 2.03549L38.6924 1.29214ZM39.8513 7.22782C39.8513 5.68598 39.8524 4.47707 39.7223 3.54437C39.5902 2.59747 39.313 1.85051 38.6924 1.29214L38.0235 2.03549C38.3963 2.37093 38.6157 2.84925 38.7319 3.68253C38.8501 4.53001 38.8513 5.6562 38.8513 7.22782H39.8513ZM39.8513 18.8951V7.22782H38.8513V18.8951H39.8513ZM25.4483 19.3951H39.3513V18.3951H25.4483V19.3951ZM30.9887 12.8784L25.1018 18.5346L25.7947 19.2557L31.6815 13.5995L30.9887 12.8784ZM28.2032 10.701L30.9746 13.5854L31.6957 12.8926L28.9243 10.0082L28.2032 10.701ZM19.4407 19.8135L28.9102 10.7151L28.2174 9.99405L18.7479 19.0924L19.4407 19.8135ZM17.9397 21.2557L19.4407 19.8135L18.7479 19.0924L17.2469 20.5346L17.9397 21.2557ZM19.4407 21.9768L17.9397 20.5346L17.2469 21.2557L18.7479 22.6978L19.4407 21.9768ZM28.9102 31.0751L19.4407 21.9768L18.7479 22.6978L28.2174 31.7962L28.9102 31.0751ZM30.9746 28.2048L28.2032 31.0892L28.9243 31.782L31.6957 28.8976L30.9746 28.2048ZM25.1018 23.2557L30.9887 28.9118L31.6815 28.1907L25.7947 22.5346L25.1018 23.2557ZM39.3513 22.3951H25.4483V23.3951H39.3513V22.3951ZM39.8513 34.4443V22.8951H38.8513V34.4443H39.8513ZM38.6924 40.38C39.313 39.8216 39.5902 39.0747 39.7223 38.1278C39.8524 37.1951 39.8513 35.9862 39.8513 34.4443H38.8513C38.8513 36.0159 38.8501 37.1421 38.7319 37.9896C38.6157 38.8229 38.3963 39.3012 38.0235 39.6366L38.6924 40.38ZM32.6678 40.9083C34.2011 41.0704 35.4032 41.1987 36.3444 41.1674C37.2999 41.1356 38.0719 40.9384 38.6924 40.38L38.0235 39.6366C37.6508 39.9721 37.152 40.1399 36.3111 40.1679C35.4559 40.1964 34.3358 40.0791 32.7729 39.9138L32.6678 40.9083ZM4.52681 37.9327L32.6678 40.9083L32.7729 39.9138L4.63197 36.9382L4.52681 37.9327ZM1.14161 36.9295C1.49236 37.3193 1.94308 37.5194 2.48508 37.6482C3.01322 37.7736 3.68913 37.8441 4.52681 37.9327L4.63197 36.9382C3.76778 36.8468 3.16728 36.7824 2.71616 36.6752C2.27891 36.5714 2.04751 36.4413 1.88497 36.2606L1.14161 36.9295ZM0.5 33.4576C0.5 34.3 0.499034 34.9796 0.568242 35.518C0.639266 36.0705 0.790865 36.5397 1.14161 36.9295L1.88497 36.2606C1.72243 36.08 1.61738 35.8362 1.56008 35.3905C1.50097 34.9306 1.5 34.3266 1.5 33.4576H0.5ZM0.5 8.2145V33.4576H1.5V8.2145H0.5ZM1.14161 4.74259C0.790865 5.13238 0.639266 5.60164 0.568242 6.15417C0.499034 6.69257 0.5 7.37215 0.5 8.2145H1.5C1.5 7.3455 1.50097 6.74155 1.56008 6.28167C1.61738 5.83592 1.72243 5.59212 1.88497 5.41149L1.14161 4.74259ZM4.52681 3.73945C3.68912 3.82803 3.01322 3.89853 2.48508 4.02397C1.94308 4.1527 1.49236 4.3528 1.14161 4.74259L1.88497 5.41149C2.04751 5.23085 2.27891 5.10075 2.71616 4.9969C3.16728 4.88975 3.76778 4.82529 4.63196 4.73391L4.52681 3.73945Z" fill="#6800FF"/>
</svg>
