<svg width="39" height="40" viewBox="0 0 39 40" fill="none" xmlns="http://www.w3.org/2000/svg">
<path fill-rule="evenodd" clip-rule="evenodd" d="M3.57939 3.23668L31.7204 0.261083C34.8166 -0.0663059 36.3647 -0.230001 37.358 0.663814C38.3513 1.55763 38.3513 3.11436 38.3513 6.22782V17.8951H24.4483L30.3351 12.239L27.5638 9.3546L18.0943 18.4529L16.5933 19.8951L18.0943 21.3373L27.5638 30.4356L30.3351 27.5512L24.4483 21.8951H38.3513V33.4443C38.3513 36.5578 38.3513 38.1145 37.358 39.0083C36.3647 39.9021 34.8166 39.7384 31.7204 39.411L3.57939 36.4354C1.87752 36.2555 1.02658 36.1655 0.51329 35.5951C0 35.0247 0 34.169 0 32.4576V7.2145C0 5.50314 0 4.64747 0.51329 4.07704C1.02658 3.50661 1.87752 3.41664 3.57939 3.23668Z" fill="white"/>
</svg>
