<svg width="28" height="59" viewBox="0 0 28 59" fill="none" xmlns="http://www.w3.org/2000/svg">
<path fill-rule="evenodd" clip-rule="evenodd" d="M3.16145 4.94855L20.7422 1.17923C24.0953 0.46032 25.7718 0.100867 26.8859 1.00142C28 1.90197 28 3.61661 28 7.0459V28.6403H13.7457L20.8628 16.5025L19.1375 15.4908L11.1375 29.1345L10.8409 29.6403L11.1375 30.1462L19.1375 43.7898L20.8628 42.7782L13.7457 30.6403H28V52.2326C28 55.6619 28 57.3765 26.8859 58.2771C25.7718 59.1776 24.0953 58.8182 20.7423 58.0993L20.7422 58.0993L20.7422 58.0993L3.16146 54.33C1.64662 54.0052 0.889197 53.8428 0.444599 53.2928C0 52.7427 0 51.9681 0 50.4189V8.85967C0 7.3104 0 6.53577 0.444599 5.98574C0.889197 5.43572 1.64662 5.27333 3.16145 4.94855Z" fill="black"/>
</svg>
