<svg width="71" height="50" viewBox="0 0 71 50" fill="none" xmlns="http://www.w3.org/2000/svg">
<path d="M10.6489 21.4279C12.0532 21.4279 13.4259 21.0089 14.5935 20.2239C15.761 19.4389 16.6711 18.3232 17.2085 17.0178C17.7458 15.7123 17.8864 14.2759 17.6125 12.8901C17.3385 11.5043 16.6623 10.2313 15.6694 9.23217C14.6764 8.23305 13.4113 7.55264 12.034 7.27698C10.6568 7.00132 9.22921 7.1428 7.93185 7.68352C6.6345 8.22424 5.52563 9.13992 4.74547 10.3148C3.96531 11.4896 3.54891 12.8709 3.54891 14.2838C3.55065 16.178 4.29924 17.9941 5.63037 19.3335C6.9615 20.6729 8.7664 21.4262 10.6489 21.4279ZM60.3423 21.4279C61.7466 21.4279 63.1193 21.0089 64.2869 20.2239C65.4545 19.4389 66.3645 18.3232 66.9019 17.0178C67.4393 15.7123 67.5799 14.2759 67.3059 12.8901C67.0319 11.5043 66.3557 10.2313 65.3628 9.23217C64.3698 8.23305 63.1047 7.55264 61.7275 7.27698C60.3502 7.00132 58.9226 7.1428 57.6253 7.68352C56.3279 8.22424 55.219 9.13992 54.4389 10.3148C53.6587 11.4896 53.2423 12.8709 53.2423 14.2838C53.2441 16.1776 53.9924 17.9934 55.323 19.3328C56.6537 20.6721 58.458 21.4256 60.3401 21.4279H60.3423ZM63.8912 24.9989H56.7912C54.9165 24.997 53.1177 25.7436 51.7894 27.0748C54.038 28.3041 55.9657 30.0511 57.4151 32.1731C58.8646 34.2952 59.7947 36.7321 60.1294 39.2849H67.4511C67.9172 39.2852 68.3789 39.1931 68.8096 39.0137C69.2403 38.8343 69.6316 38.5713 69.9612 38.2397C70.2908 37.908 70.5522 37.5142 70.7304 37.0809C70.9087 36.6475 71.0003 36.183 71 35.714V32.1408C70.9977 30.2455 70.2476 28.4286 68.9147 27.0894C67.5817 25.7502 65.7749 24.9983 63.8912 24.9989ZM35.4956 24.9989C37.9525 24.9989 40.3542 24.2658 42.3971 22.8924C44.4399 21.5189 46.0321 19.5668 46.9723 17.2828C47.9125 14.9988 48.1585 12.4856 47.6792 10.0609C47.1999 7.63628 46.0168 5.40909 44.2795 3.66101C42.5422 1.91293 40.3288 0.722473 37.9191 0.240179C35.5094 -0.242115 33.0117 0.00541591 30.7418 0.951469C28.472 1.89752 26.5319 3.49961 25.1669 5.55513C23.8019 7.61065 23.0734 10.0273 23.0734 12.4995C23.0728 14.1411 23.3937 15.7667 24.0178 17.2835C24.6418 18.8002 25.5568 20.1784 26.7105 21.3392C27.8641 22.5 29.2337 23.4207 30.7411 24.0486C32.2485 24.6766 33.8641 24.9995 35.4956 24.9989ZM44.0134 28.5699H43.0938C40.7311 29.7446 38.1311 30.3557 35.4956 30.3557C32.8602 30.3557 30.2602 29.7446 27.8974 28.5699H26.9778C23.5889 28.5704 20.3389 29.9251 17.9424 32.3362C15.5459 34.7472 14.199 38.0171 14.1978 41.4271V44.6425C14.1984 46.0632 14.7595 47.4256 15.7579 48.4302C16.7563 49.4348 18.1103 49.9994 19.5223 50H51.4668C52.8787 49.9994 54.2327 49.4348 55.2311 48.4302C56.2295 47.4256 56.7906 46.0632 56.7912 44.6425V41.4271C56.7901 38.0175 55.4435 34.7479 53.0474 32.3369C50.6514 29.926 47.402 28.571 44.0134 28.5699ZM19.1996 27.0748C17.8714 25.7436 16.0725 24.997 14.1978 24.9989H7.1C5.21788 25.0007 3.41331 25.7536 2.08224 27.0925C0.751177 28.4314 0.00232696 30.247 2.71736e-06 32.1408V35.7118C-0.000574494 36.181 0.0908106 36.6457 0.268928 37.0793C0.447046 37.513 0.708399 37.907 1.03803 38.2389C1.36766 38.5708 1.7591 38.834 2.18995 39.0135C2.6208 39.193 3.08259 39.2852 3.54891 39.2849H10.8596C11.1974 36.7331 12.1287 34.2975 13.5779 32.1759C15.027 30.0543 16.9531 28.3066 19.1996 27.0748Z" fill="white"/>
</svg>
