<svg width="50" height="31" viewBox="0 0 50 31" fill="none" xmlns="http://www.w3.org/2000/svg">
<line x1="2" y1="2" x2="41.875" y2="2" stroke="#22242E" stroke-width="4" stroke-linecap="round"/>
<line x1="2" y1="15.5" x2="25" y2="15.5" stroke="#22242E" stroke-width="4" stroke-linecap="round"/>
<line x1="2" y1="29" x2="31.75" y2="29" stroke="#22242E" stroke-width="4" stroke-linecap="round"/>
<path d="M39.2626 11.9874C38.5791 11.304 38.5791 10.196 39.2626 9.51256C39.946 8.82915 41.054 8.82915 41.7374 9.51256L39.2626 11.9874ZM47.25 17.5L48.4874 16.2626L49.7249 17.5L48.4874 18.7374L47.25 17.5ZM41.7374 25.4874C41.054 26.1709 39.946 26.1709 39.2626 25.4874C38.5791 24.804 38.5791 23.696 39.2626 23.0126L41.7374 25.4874ZM41.7374 9.51256L48.4874 16.2626L46.0126 18.7374L39.2626 11.9874L41.7374 9.51256ZM48.4874 18.7374L41.7374 25.4874L39.2626 23.0126L46.0126 16.2626L48.4874 18.7374Z" fill="#22242E"/>
</svg>
