<svg width="36" height="28" viewBox="0 0 36 28" fill="none" xmlns="http://www.w3.org/2000/svg">
<ellipse cx="27.0124" cy="7.94502" rx="8.33759" ry="7.80293" fill="#22242E"/>
<mask id="path-2-outside-1_53_1479" maskUnits="userSpaceOnUse" x="0" y="3.99438" width="34" height="24" fill="black">
<rect fill="white" y="3.99438" width="34" height="24"/>
<path fill-rule="evenodd" clip-rule="evenodd" d="M20.7614 6.99438H31.1815C31.7338 6.99438 32.1815 6.54667 32.1815 5.99438C32.1815 5.4421 31.7338 4.99438 31.1815 4.99438H21.5604C21.1664 5.60495 20.8919 6.28233 20.7614 6.99438ZM19.5674 14.7481C20.4024 15.5663 21.3843 16.2447 22.4674 16.7481H2C1.44772 16.7481 1 16.3003 1 15.7481C1 15.1958 1.44772 14.7481 2 14.7481H19.5674ZM16.7221 6.99438C16.7915 6.30163 16.936 5.63283 17.1472 4.99438H2C1.44772 4.99438 1 5.4421 1 5.99438C1 6.54667 1.44772 6.99438 2 6.99438H16.7221ZM2 24.5017C1.44772 24.5017 1 24.9495 1 25.5017C1 26.054 1.44772 26.5017 2 26.5017H31.1815C31.7338 26.5017 32.1815 26.054 32.1815 25.5017C32.1815 24.9495 31.7338 24.5017 31.1815 24.5017H2Z"/>
</mask>
<path fill-rule="evenodd" clip-rule="evenodd" d="M20.7614 6.99438H31.1815C31.7338 6.99438 32.1815 6.54667 32.1815 5.99438C32.1815 5.4421 31.7338 4.99438 31.1815 4.99438H21.5604C21.1664 5.60495 20.8919 6.28233 20.7614 6.99438ZM19.5674 14.7481C20.4024 15.5663 21.3843 16.2447 22.4674 16.7481H2C1.44772 16.7481 1 16.3003 1 15.7481C1 15.1958 1.44772 14.7481 2 14.7481H19.5674ZM16.7221 6.99438C16.7915 6.30163 16.936 5.63283 17.1472 4.99438H2C1.44772 4.99438 1 5.4421 1 5.99438C1 6.54667 1.44772 6.99438 2 6.99438H16.7221ZM2 24.5017C1.44772 24.5017 1 24.9495 1 25.5017C1 26.054 1.44772 26.5017 2 26.5017H31.1815C31.7338 26.5017 32.1815 26.054 32.1815 25.5017C32.1815 24.9495 31.7338 24.5017 31.1815 24.5017H2Z" fill="#22242E"/>
<path d="M20.7614 6.99438L19.7778 6.81411L19.5615 7.99438H20.7614V6.99438ZM21.5604 4.99438V3.99438H21.0155L20.7201 4.45218L21.5604 4.99438ZM22.4674 16.7481V17.7481L22.8889 15.8412L22.4674 16.7481ZM19.5674 14.7481L20.2673 14.0338L19.9756 13.7481H19.5674V14.7481ZM16.7221 6.99438V7.99438H17.627L17.7171 7.09405L16.7221 6.99438ZM17.1472 4.99438L18.0966 5.30841L18.5312 3.99438H17.1472V4.99438ZM31.1815 5.99438H20.7614V7.99438H31.1815V5.99438ZM31.1815 5.99438V7.99438C32.2861 7.99438 33.1815 7.09895 33.1815 5.99438H31.1815ZM31.1815 5.99438H33.1815C33.1815 4.88981 32.2861 3.99438 31.1815 3.99438V5.99438ZM21.5604 5.99438H31.1815V3.99438H21.5604V5.99438ZM20.7201 4.45218C20.2582 5.16805 19.9329 5.96771 19.7778 6.81411L21.745 7.17466C21.8509 6.59696 22.0746 6.04185 22.4006 5.53659L20.7201 4.45218ZM22.8889 15.8412C21.9074 15.385 21.0199 14.7714 20.2673 14.0338L18.8674 15.4623C19.7849 16.3613 20.8613 17.1043 22.0459 17.6549L22.8889 15.8412ZM22.4674 15.7481H2V17.7481H22.4674V15.7481ZM2 15.7481H0C0 16.8526 0.895431 17.7481 2 17.7481V15.7481ZM2 15.7481V13.7481C0.89543 13.7481 0 14.6435 0 15.7481H2ZM2 15.7481H19.5674V13.7481H2V15.7481ZM17.7171 7.09405C17.7791 6.47501 17.9081 5.87807 18.0966 5.30841L16.1977 4.68036C15.9638 5.38759 15.8039 6.12824 15.7271 6.89472L17.7171 7.09405ZM2 5.99438H17.1472V3.99438H2V5.99438ZM2 5.99438V3.99438C0.89543 3.99438 0 4.88982 0 5.99438H2ZM2 5.99438H0C0 7.09895 0.89543 7.99438 2 7.99438V5.99438ZM16.7221 5.99438H2V7.99438H16.7221V5.99438ZM2 25.5017V23.5017C0.89543 23.5017 0 24.3972 0 25.5017H2ZM2 25.5017H0C0 26.6063 0.89543 27.5017 2 27.5017V25.5017ZM31.1815 25.5017H2V27.5017H31.1815V25.5017ZM31.1815 25.5017V27.5017C32.2861 27.5017 33.1815 26.6063 33.1815 25.5017H31.1815ZM31.1815 25.5017H33.1815C33.1815 24.3972 32.2861 23.5017 31.1815 23.5017V25.5017ZM2 25.5017H31.1815V23.5017H2V25.5017Z" fill="#22242E" mask="url(#path-2-outside-1_53_1479)"/>
<path d="M29.7112 7.26099L29.4241 8.2981H23.9398L24.2269 7.26099H29.7112ZM27.0569 13.677L24.1097 10.2024L24.1038 9.32935H25.5042C25.8675 9.32935 26.1663 9.26489 26.4007 9.13599C26.639 9.00317 26.8167 8.82544 26.9339 8.60278C27.0511 8.37622 27.1097 8.12427 27.1097 7.84692C27.1097 7.54614 27.055 7.28052 26.9456 7.05005C26.8362 6.81958 26.6624 6.63989 26.4241 6.51099C26.1858 6.38208 25.8714 6.31763 25.4808 6.31763H23.9456L24.262 5.14575H25.4808C26.1722 5.14575 26.7464 5.24927 27.2034 5.4563C27.6605 5.66333 28.0023 5.96411 28.2288 6.35864C28.4593 6.75317 28.5745 7.22974 28.5745 7.78833C28.5745 8.27661 28.4905 8.70825 28.3226 9.08325C28.1546 9.45435 27.8831 9.75513 27.5081 9.9856C27.1331 10.2122 26.6351 10.3528 26.014 10.4075L28.7093 13.6008V13.677H27.0569ZM29.7171 5.14575L29.4241 6.18286H24.9417L25.2288 5.14575H29.7171Z" fill="#EAEDF0"/>
</svg>
