<svg width="39" height="33" viewBox="0 0 39 33" fill="none" xmlns="http://www.w3.org/2000/svg">
<circle cx="29.7045" cy="9.23481" r="9.23481" fill="white"/>
<mask id="path-2-outside-1_369_13017" maskUnits="userSpaceOnUse" x="0" y="4.92603" width="37" height="28" fill="black">
<rect fill="white" y="4.92603" width="37" height="28"/>
<path fill-rule="evenodd" clip-rule="evenodd" d="M22.5875 7.92603H34.3218C34.8741 7.92603 35.3218 7.47831 35.3218 6.92603C35.3218 6.37374 34.8741 5.92603 34.3218 5.92603H23.2687C22.9493 6.54596 22.7169 7.218 22.5875 7.92603ZM18.5449 7.92603C18.6246 7.23852 18.7665 6.56993 18.9646 5.92603H2C1.44772 5.92603 1 6.37374 1 6.92603C1 7.47831 1.44772 7.92603 2 7.92603H18.5449ZM22.0616 17.4695C22.9427 18.2876 23.9553 18.966 25.0641 19.4695H2C1.44772 19.4695 1 19.0218 1 18.4695C1 17.9173 1.44772 17.4695 2 17.4695H22.0616ZM35.1088 19.0866C34.8598 19.2235 34.6051 19.3512 34.3451 19.4693C34.6551 19.4622 34.9302 19.3141 35.1088 19.0866ZM2 29.0131C1.44772 29.0131 1 29.4608 1 30.0131C1 30.5653 1.44772 31.0131 2 31.0131H34.3218C34.8741 31.0131 35.3218 30.5653 35.3218 30.0131C35.3218 29.4608 34.8741 29.0131 34.3218 29.0131H2Z"/>
</mask>
<path fill-rule="evenodd" clip-rule="evenodd" d="M22.5875 7.92603H34.3218C34.8741 7.92603 35.3218 7.47831 35.3218 6.92603C35.3218 6.37374 34.8741 5.92603 34.3218 5.92603H23.2687C22.9493 6.54596 22.7169 7.218 22.5875 7.92603ZM18.5449 7.92603C18.6246 7.23852 18.7665 6.56993 18.9646 5.92603H2C1.44772 5.92603 1 6.37374 1 6.92603C1 7.47831 1.44772 7.92603 2 7.92603H18.5449ZM22.0616 17.4695C22.9427 18.2876 23.9553 18.966 25.0641 19.4695H2C1.44772 19.4695 1 19.0218 1 18.4695C1 17.9173 1.44772 17.4695 2 17.4695H22.0616ZM35.1088 19.0866C34.8598 19.2235 34.6051 19.3512 34.3451 19.4693C34.6551 19.4622 34.9302 19.3141 35.1088 19.0866ZM2 29.0131C1.44772 29.0131 1 29.4608 1 30.0131C1 30.5653 1.44772 31.0131 2 31.0131H34.3218C34.8741 31.0131 35.3218 30.5653 35.3218 30.0131C35.3218 29.4608 34.8741 29.0131 34.3218 29.0131H2Z" fill="white"/>
<path d="M22.5875 7.92603L21.6038 7.7463L21.3883 8.92603H22.5875V7.92603ZM23.2687 5.92603V4.92603H22.6589L22.3797 5.46806L23.2687 5.92603ZM18.5449 7.92603V8.92603H19.4356L19.5382 8.04127L18.5449 7.92603ZM18.9646 5.92603L19.9204 6.22013L20.3186 4.92603H18.9646V5.92603ZM25.0641 19.4695V20.4695L25.4775 18.559L25.0641 19.4695ZM22.0616 17.4695L22.7421 16.7367L22.4543 16.4695H22.0616V17.4695ZM35.1088 19.0866L35.8954 19.7041L34.6271 18.2103L35.1088 19.0866ZM34.3451 19.4693L33.9316 18.5588L34.3679 20.469L34.3451 19.4693ZM34.3218 6.92603H22.5875V8.92603H34.3218V6.92603ZM34.3218 6.92603V8.92603C35.4264 8.92603 36.3218 8.0306 36.3218 6.92603H34.3218ZM34.3218 6.92603H36.3218C36.3218 5.82146 35.4264 4.92603 34.3218 4.92603V6.92603ZM23.2687 6.92603H34.3218V4.92603H23.2687V6.92603ZM22.3797 5.46806C22.016 6.17408 21.7512 6.93973 21.6038 7.7463L23.5713 8.10575C23.6826 7.49626 23.8826 6.91783 24.1577 6.38399L22.3797 5.46806ZM19.5382 8.04127C19.6109 7.41493 19.74 6.8062 19.9204 6.22013L18.0088 5.63192C17.7929 6.33367 17.6384 7.06211 17.5515 7.81079L19.5382 8.04127ZM2 6.92603H18.9646V4.92603H2V6.92603ZM2 6.92603V4.92603C0.89543 4.92603 0 5.82146 0 6.92603H2ZM2 6.92603H0C0 8.03059 0.89543 8.92603 2 8.92603V6.92603ZM18.5449 6.92603H2V8.92603H18.5449V6.92603ZM25.4775 18.559C24.4679 18.1006 23.5453 17.4825 22.7421 16.7367L21.3812 18.2024C22.3401 19.0927 23.4426 19.8315 24.6506 20.3801L25.4775 18.559ZM25.0641 18.4695H2V20.4695H25.0641V18.4695ZM2 18.4695H0C0 19.5741 0.895431 20.4695 2 20.4695V18.4695ZM2 18.4695V16.4695C0.895431 16.4695 0 17.365 0 18.4695H2ZM2 18.4695H22.0616V16.4695H2V18.4695ZM34.6271 18.2103C34.4003 18.3349 34.1683 18.4512 33.9316 18.5588L34.7586 20.3798C35.0419 20.2511 35.3194 20.112 35.5906 19.9629L34.6271 18.2103ZM34.3223 18.469L34.3223 18.4695L34.3679 20.469C34.989 20.4549 35.5398 20.157 35.8954 19.7041L34.3223 18.469ZM2 30.0131V28.0131C0.89543 28.0131 0 28.9085 0 30.0131H2ZM2 30.0131H0C0 31.1176 0.89543 32.0131 2 32.0131V30.0131ZM34.3218 30.0131H2V32.0131H34.3218V30.0131ZM34.3218 30.0131V32.0131C35.4264 32.0131 36.3218 31.1176 36.3218 30.0131H34.3218ZM34.3218 30.0131H36.3218C36.3218 28.9085 35.4264 28.0131 34.3218 28.0131V30.0131ZM2 30.0131H34.3218V28.0131H2V30.0131Z" fill="white" mask="url(#path-2-outside-1_369_13017)"/>
<path d="M32.3828 7.58398L32.0957 8.62109H26.6113L26.8984 7.58398H32.3828ZM29.7285 14L26.7812 10.5254L26.7754 9.65234H28.1758C28.5391 9.65234 28.8379 9.58789 29.0723 9.45898C29.3105 9.32617 29.4883 9.14844 29.6055 8.92578C29.7227 8.69922 29.7812 8.44727 29.7812 8.16992C29.7812 7.86914 29.7266 7.60352 29.6172 7.37305C29.5078 7.14258 29.334 6.96289 29.0957 6.83398C28.8574 6.70508 28.543 6.64062 28.1523 6.64062H26.6172L26.9336 5.46875H28.1523C28.8438 5.46875 29.418 5.57227 29.875 5.7793C30.332 5.98633 30.6738 6.28711 30.9004 6.68164C31.1309 7.07617 31.2461 7.55273 31.2461 8.11133C31.2461 8.59961 31.1621 9.03125 30.9941 9.40625C30.8262 9.77734 30.5547 10.0781 30.1797 10.3086C29.8047 10.5352 29.3066 10.6758 28.6855 10.7305L31.3809 13.9238V14H29.7285ZM32.3887 5.46875L32.0957 6.50586H27.6133L27.9004 5.46875H32.3887Z" fill="#0A60BD"/>
</svg>
