<svg width="38" height="46" viewBox="0 0 38 46" fill="none" xmlns="http://www.w3.org/2000/svg">
<path d="M11.5 35.0833V30.25V35.0833ZM19 35.0833V25.4167V35.0833ZM26.5 35.0833V20.5833V35.0833ZM31.5 44.75H6.5C5.17392 44.75 3.90215 44.2408 2.96447 43.3343C2.02678 42.4279 1.5 41.1985 1.5 39.9167V6.08333C1.5 4.80145 2.02678 3.57208 2.96447 2.66565C3.90215 1.75922 5.17392 1.25 6.5 1.25H20.465C21.128 1.25014 21.7638 1.50484 22.2325 1.95808L35.7675 15.0419C36.2364 15.495 36.4999 16.1096 36.5 16.7505V39.9167C36.5 41.1985 35.9732 42.4279 35.0355 43.3343C34.0979 44.2408 32.8261 44.75 31.5 44.75Z" stroke="#22242E" stroke-width="2" stroke-linecap="round" stroke-linejoin="round"/>
</svg>
