<svg width="57" height="57" viewBox="0 0 57 57" fill="none" xmlns="http://www.w3.org/2000/svg">
<circle cx="41.5625" cy="41.5625" r="5.9375" stroke="white" stroke-width="2"/>
<path d="M49.875 49.875L46.3125 46.3125" stroke="white" stroke-width="2" stroke-linecap="round"/>
<path fill-rule="evenodd" clip-rule="evenodd" d="M9.5 12.75C9.5 8.97876 9.5 7.09315 10.6716 5.92157C11.8431 4.75 13.7288 4.75 17.5 4.75H39.5C43.2712 4.75 45.1569 4.75 46.3284 5.92157C47.5 7.09315 47.5 8.97876 47.5 12.75V32.3754C45.7901 31.268 43.7514 30.625 41.5625 30.625C35.5219 30.625 30.625 35.5219 30.625 41.5625C30.625 46.8014 34.3083 51.18 39.2266 52.25H17.5C13.7288 52.25 11.8431 52.25 10.6716 51.0784C9.5 49.9069 9.5 48.0212 9.5 44.25V12.75ZM41.5625 40.625C41.0447 40.625 40.625 41.0447 40.625 41.5625C40.625 42.0803 41.0447 42.5 41.5625 42.5C42.0803 42.5 42.5 42.0803 42.5 41.5625C42.5 41.0447 42.0803 40.625 41.5625 40.625ZM19 12.75C18.1716 12.75 17.5 13.4216 17.5 14.25C17.5 15.0784 18.1716 15.75 19 15.75H28.5C29.3284 15.75 30 15.0784 30 14.25C30 13.4216 29.3284 12.75 28.5 12.75H19ZM19 22.25C18.1716 22.25 17.5 22.9216 17.5 23.75C17.5 24.5784 18.1716 25.25 19 25.25H33.25C34.0784 25.25 34.75 24.5784 34.75 23.75C34.75 22.9216 34.0784 22.25 33.25 22.25H19ZM19 31.75C18.1716 31.75 17.5 32.4216 17.5 33.25C17.5 34.0784 18.1716 34.75 19 34.75H26.125C26.9534 34.75 27.625 34.0784 27.625 33.25C27.625 32.4216 26.9534 31.75 26.125 31.75H19Z" fill="white"/>
</svg>
