<svg xmlns="http://www.w3.org/2000/svg" width="30" height="30" viewBox="0 0 30 30">
  <g id="Icon_feather-settings" data-name="Icon feather-settings" transform="translate(-0.5 -0.5)">
    <path id="Path_143" data-name="Path 143" d="M21.136,17.318A3.818,3.818,0,1,1,17.318,13.5,3.818,3.818,0,0,1,21.136,17.318Z" transform="translate(-1.818 -1.818)" fill="none" stroke="#fff" stroke-linecap="round" stroke-linejoin="round" stroke-width="2"/>
    <path id="Path_144" data-name="Path 144" d="M24.918,19.318a2.1,2.1,0,0,0,.42,2.316l.076.076a2.547,2.547,0,1,1-3.6,3.6l-.076-.076a2.117,2.117,0,0,0-3.589,1.5v.216a2.545,2.545,0,1,1-5.091,0V26.84a2.1,2.1,0,0,0-1.375-1.922,2.1,2.1,0,0,0-2.316.42l-.076.076a2.547,2.547,0,1,1-3.6-3.6l.076-.076a2.117,2.117,0,0,0-1.5-3.589H4.045a2.545,2.545,0,1,1,0-5.091H4.16a2.1,2.1,0,0,0,1.922-1.375,2.1,2.1,0,0,0-.42-2.316l-.076-.076a2.547,2.547,0,1,1,3.6-3.6l.076.076a2.1,2.1,0,0,0,2.316.42h.1a2.1,2.1,0,0,0,1.273-1.922V4.045a2.545,2.545,0,1,1,5.091,0V4.16a2.117,2.117,0,0,0,3.589,1.5l.076-.076a2.547,2.547,0,1,1,3.6,3.6l-.076.076a2.1,2.1,0,0,0-.42,2.316v.1a2.1,2.1,0,0,0,1.922,1.273h.216a2.545,2.545,0,1,1,0,5.091H26.84a2.1,2.1,0,0,0-1.922,1.273Z" transform="translate(0 0)" fill="none" stroke="#fff" stroke-linecap="round" stroke-linejoin="round" stroke-width="2"/>
  </g>
</svg>
