<svg width="53" height="53" viewBox="0 0 53 53" fill="none" xmlns="http://www.w3.org/2000/svg">
<path d="M31.5969 3.71774L33.0894 3.56849V3.56848L31.5969 3.71774ZM31.1828 2.1753L32.1893 1.06312L32.1893 1.06312L31.1828 2.1753ZM32.0699 8.4479L33.5624 8.29865V8.29865L32.0699 8.4479ZM35.3264 9.79681L34.3766 8.63587L34.3766 8.63588L35.3264 9.79681ZM39.0056 6.78659L39.9554 7.94753L39.0056 6.78659ZM40.389 5.98871L40.4638 4.49058H40.4638L40.389 5.98871ZM41.6863 6.92029L40.6256 7.98095L41.6863 6.92029ZM46.0798 11.3138L45.0191 12.3745L46.0798 11.3138ZM47.0114 12.611L48.5095 12.5363V12.5363L47.0114 12.611ZM46.2135 13.9945L47.3744 14.9444V14.9444L46.2135 13.9945ZM43.2032 17.6737L42.0423 16.7239V16.7239L43.2032 17.6737ZM44.5521 20.9303L44.7014 19.4377H44.7014L44.5521 20.9303ZM49.2824 21.4033L49.4317 19.9108L49.2824 21.4033ZM50.8249 21.8174L49.7127 22.8239L49.7127 22.8239L50.8249 21.8174ZM50.8249 31.1828L49.7127 30.1763L49.7127 30.1763L50.8249 31.1828ZM49.2824 31.5968L49.1332 30.1043L49.2824 31.5968ZM44.553 32.0698L44.7023 33.5623L44.553 32.0698ZM43.2041 35.3263L44.3651 34.3765L44.3651 34.3765L43.2041 35.3263ZM46.2136 39.0046L45.0527 39.9544L45.0527 39.9544L46.2136 39.0046ZM47.0115 40.388L48.5096 40.4628V40.4628L47.0115 40.388ZM46.0799 41.6853L47.1406 42.7459L47.1406 42.7459L46.0799 41.6853ZM40.3892 47.0104L40.3145 45.5122H40.3144L40.3892 47.0104ZM39.0057 46.2125L38.0558 47.3734V47.3734L39.0057 46.2125ZM35.3265 43.2023L34.2659 44.2629L34.3188 44.3158L34.3767 44.3632L35.3265 43.2023ZM35.3265 43.2022L36.3872 42.1416L36.3343 42.0887L36.2764 42.0413L35.3265 43.2022ZM32.8678 41.8719L33.4418 43.2577L33.4419 43.2577L32.8678 41.8719ZM32.07 44.5512L30.5774 44.4019V44.4019L32.07 44.5512ZM31.5969 49.2824L33.0894 49.4317V49.4317L31.5969 49.2824ZM31.1828 50.8249L32.1893 51.937L32.1893 51.937L31.1828 50.8249ZM21.4033 49.2824L22.8959 49.1332L21.4033 49.2824ZM20.9303 44.5521L19.4377 44.7014L20.9303 44.5521ZM20.1324 41.8728L19.5584 43.2587L19.5584 43.2587L20.1324 41.8728ZM17.6737 43.2032L18.6236 44.3642L17.6737 43.2032ZM13.9944 46.2136L14.9443 47.3745L13.9944 46.2136ZM12.6109 47.0115L12.5362 48.5096H12.5362L12.6109 47.0115ZM11.3137 46.0799L12.3744 45.0192H12.3744L11.3137 46.0799ZM6.92018 41.6864L5.85952 42.747H5.85952L6.92018 41.6864ZM5.9886 40.3892L7.48674 40.3144V40.3144L5.9886 40.3892ZM6.78648 39.0057L7.94741 39.9555L7.94741 39.9555L6.78648 39.0057ZM9.79679 35.3264L10.9577 36.2763H10.9577L9.79679 35.3264ZM11.1272 32.8677L12.513 32.2937L12.513 32.2937L11.1272 32.8677ZM8.44789 32.0699L8.29863 33.5624H8.29863L8.44789 32.0699ZM3.71774 31.5968L3.86699 30.1043H3.86699L3.71774 31.5968ZM2.1753 31.1828L1.06312 32.1893H1.06312L2.1753 31.1828ZM2.1753 21.8174L1.06312 20.8109L1.06312 20.8109L2.1753 21.8174ZM3.71774 21.4033L3.56849 19.9108H3.56848L3.71774 21.4033ZM8.44881 20.9302L8.29956 19.4376H8.29956L8.44881 20.9302ZM11.1281 20.1324L12.5139 20.7064L12.5139 20.7064L11.1281 20.1324ZM9.79773 17.6737L10.9587 16.7238L10.9501 16.7134L9.79773 17.6737ZM9.79772 17.6737L8.63674 18.6235L8.64539 18.6339L9.79772 17.6737ZM6.7866 13.9934L5.62566 14.9432L6.7866 13.9934ZM5.98872 12.6099L7.48686 12.6846V12.6846L5.98872 12.6099ZM6.9203 11.3127L7.98096 12.3734L6.9203 11.3127ZM11.3138 6.91918L10.2532 5.85852L10.2532 5.85852L11.3138 6.91918ZM12.611 5.9876L12.5363 4.48946L12.5363 4.48946L12.611 5.9876ZM13.9945 6.78548L13.0447 7.94641L13.0447 7.94641L13.9945 6.78548ZM17.6739 9.79584L18.6237 8.63491V8.63491L17.6739 9.79584ZM20.9304 8.44694L22.423 8.5962V8.59619L20.9304 8.44694ZM21.4033 3.71774L22.8959 3.867V3.867L21.4033 3.71774ZM33.0894 3.56848C33.0506 3.18042 33.0101 2.74597 32.9261 2.38368C32.8324 1.97969 32.6465 1.47692 32.1893 1.06312L30.1763 3.28747C30.101 3.21941 30.0487 3.14384 30.0179 3.08295C29.992 3.03188 29.9924 3.01284 30.0036 3.06131C30.0152 3.11108 30.0299 3.19443 30.0477 3.33758C30.0655 3.48024 30.0824 3.64768 30.1043 3.867L33.0894 3.56848ZM33.5624 8.29865L33.0894 3.56849L30.1043 3.867L30.5773 8.59716L33.5624 8.29865ZM33.4417 9.74137C33.8408 9.90666 33.8533 10.2498 33.7774 9.94829C33.701 9.64467 33.6492 9.16612 33.5624 8.29865L30.5773 8.59716C30.6539 9.36322 30.7246 10.1098 30.8681 10.6802C31.0121 11.2527 31.3418 12.1187 32.2937 12.513L33.4417 9.74137ZM34.3766 8.63588C33.7018 9.18793 33.3268 9.48965 33.0581 9.65033C32.7912 9.80989 33.0427 9.57609 33.4417 9.74137L32.2937 12.513C33.2455 12.9073 34.0911 12.5281 34.5977 12.2251C35.1025 11.9232 35.6804 11.4453 36.2763 10.9577L34.3766 8.63588ZM38.0557 5.62565L34.3766 8.63587L36.2763 10.9577L39.9554 7.94753L38.0557 5.62565ZM40.4638 4.49058C39.8478 4.45986 39.3609 4.68393 39.009 4.90336C38.6934 5.10014 38.3576 5.37869 38.0557 5.62565L39.9554 7.94753C40.126 7.80795 40.2563 7.70146 40.3698 7.61316C40.4836 7.52456 40.553 7.47604 40.5963 7.44901C40.6386 7.42269 40.6253 7.43639 40.5709 7.45421C40.5061 7.47545 40.4156 7.4919 40.3143 7.48685L40.4638 4.49058ZM42.7469 5.85963C42.4712 5.58386 42.1647 5.27327 41.8703 5.04607C41.5419 4.79271 41.0797 4.5213 40.4638 4.49058L40.3143 7.48685C40.213 7.4818 40.1247 7.45643 40.0623 7.42884C40.0099 7.4057 39.9981 7.39075 40.0375 7.42114C40.0779 7.45235 40.1421 7.50752 40.2466 7.60701C40.3507 7.70616 40.4698 7.82509 40.6256 7.98095L42.7469 5.85963ZM47.1405 10.2532L42.7469 5.85963L40.6256 7.98095L45.0191 12.3745L47.1405 10.2532ZM48.5095 12.5363C48.4788 11.9204 48.2074 11.4581 47.954 11.1298C47.7268 10.8354 47.4162 10.5289 47.1405 10.2532L45.0191 12.3745C45.175 12.5303 45.2939 12.6494 45.3931 12.7535C45.4926 12.858 45.5477 12.9221 45.5789 12.9626C45.6093 13.002 45.5944 12.9902 45.5712 12.9378C45.5437 12.8754 45.5183 12.7871 45.5132 12.6858L48.5095 12.5363ZM47.3744 14.9444C47.6214 14.6425 47.8999 14.3067 48.0967 13.9911C48.3162 13.6392 48.5402 13.1522 48.5095 12.5363L45.5132 12.6857C45.5082 12.5844 45.5246 12.494 45.5459 12.4291C45.5637 12.3747 45.5774 12.3615 45.5511 12.4038C45.524 12.4471 45.4755 12.5165 45.3869 12.6303C45.2986 12.7438 45.1921 12.8741 45.0526 13.0446L47.3744 14.9444ZM44.3641 18.6236L47.3744 14.9444L45.0526 13.0446L42.0423 16.7239L44.3641 18.6236ZM43.2586 19.5584C43.4239 19.9574 43.1901 20.2089 43.3497 19.9421C43.5104 19.6734 43.8121 19.2983 44.3641 18.6236L42.0423 16.7239C41.5548 17.3197 41.0768 17.8976 40.7749 18.4024C40.4719 18.9091 40.0927 19.7546 40.487 20.7065L43.2586 19.5584ZM44.7014 19.4377C43.8339 19.351 43.3554 19.2991 43.0517 19.2227C42.7502 19.1469 43.0934 19.1594 43.2586 19.5584L40.487 20.7065C40.8813 21.6583 41.7473 21.988 42.3198 22.1321C42.8902 22.2756 43.6368 22.3462 44.4029 22.4228L44.7014 19.4377ZM49.4317 19.9108L44.7014 19.4377L44.4029 22.4228L49.1332 22.8959L49.4317 19.9108ZM51.9371 20.8109C51.5233 20.3536 51.0205 20.1678 50.6165 20.0741C50.2542 19.9901 49.8197 19.9496 49.4317 19.9108L49.1332 22.8959C49.3525 22.9178 49.5199 22.9346 49.6626 22.9524C49.8057 22.9703 49.8891 22.985 49.9389 22.9966C49.9873 23.0078 49.9683 23.0081 49.9172 22.9823C49.8563 22.9514 49.7808 22.8991 49.7127 22.8239L51.9371 20.8109ZM52.5834 23.3934C52.5834 23.0034 52.5863 22.5671 52.5388 22.1982C52.4858 21.7869 52.3509 21.2681 51.9371 20.8109L49.7127 22.8239C49.6446 22.7487 49.6001 22.6683 49.5755 22.6046C49.5548 22.5513 49.557 22.5323 49.5634 22.5817C49.5699 22.6324 49.5763 22.7168 49.5798 22.861C49.5833 23.0047 49.5834 23.173 49.5834 23.3934H52.5834ZM52.5834 29.6068V23.3934H49.5834V29.6068H52.5834ZM51.9371 32.1893C52.3509 31.732 52.4858 31.2133 52.5388 30.8019C52.5863 30.4331 52.5834 29.9968 52.5834 29.6068H49.5834C49.5834 29.8272 49.5833 29.9955 49.5798 30.1392C49.5763 30.2834 49.5699 30.3678 49.5634 30.4185C49.557 30.4678 49.5548 30.4489 49.5755 30.3955C49.6001 30.3319 49.6446 30.2515 49.7127 30.1763L51.9371 32.1893ZM49.4317 33.0894C49.8197 33.0506 50.2542 33.0101 50.6165 32.9261C51.0205 32.8324 51.5233 32.6465 51.9371 32.1893L49.7127 30.1763C49.7808 30.1011 49.8563 30.0487 49.9172 30.0179C49.9683 29.992 49.9873 29.9924 49.9389 30.0036C49.8891 30.0151 49.8057 30.0299 49.6626 30.0477C49.5199 30.0655 49.3525 30.0824 49.1332 30.1043L49.4317 33.0894ZM44.7023 33.5623L49.4317 33.0894L49.1332 30.1043L44.4038 30.5772L44.7023 33.5623ZM43.2596 33.4417C43.0943 33.8407 42.7512 33.8532 43.0527 33.7773C43.3563 33.7009 43.8348 33.6491 44.7023 33.5623L44.4038 30.5772C43.6377 30.6538 42.8911 30.7245 42.3207 30.868C41.7482 31.012 40.8822 31.3418 40.4879 32.2936L43.2596 33.4417ZM44.3651 34.3765C43.813 33.7017 43.5113 33.3267 43.3506 33.058C43.1911 32.7911 43.4249 33.0426 43.2596 33.4417L40.4879 32.2936C40.0937 33.2455 40.4729 34.091 40.7759 34.5977C41.0777 35.1024 41.5557 35.6803 42.0432 36.2762L44.3651 34.3765ZM47.3745 38.0547L44.3651 34.3765L42.0432 36.2762L45.0527 39.9544L47.3745 38.0547ZM48.5096 40.4628C48.5403 39.8468 48.3163 39.3599 48.0968 39.008C47.9001 38.6924 47.6215 38.3566 47.3745 38.0547L45.0527 39.9544C45.1922 40.125 45.2987 40.2553 45.387 40.3688C45.4756 40.4826 45.5242 40.552 45.5512 40.5953C45.5775 40.6375 45.5638 40.6243 45.546 40.5699C45.5247 40.5051 45.5083 40.4146 45.5133 40.3133L48.5096 40.4628ZM47.1406 42.7459C47.4163 42.4701 47.7269 42.1637 47.9541 41.8693C48.2075 41.5409 48.4789 41.0787 48.5096 40.4628L45.5133 40.3133C45.5184 40.212 45.5438 40.1237 45.5714 40.0612C45.5945 40.0089 45.6095 39.9971 45.5791 40.0365C45.5478 40.0769 45.4927 40.1411 45.3932 40.2456C45.294 40.3497 45.1751 40.4688 45.0192 40.6246L47.1406 42.7459ZM42.747 47.1395L47.1406 42.7459L45.0192 40.6246L40.6257 45.0181L42.747 47.1395ZM40.4639 48.5085C41.0798 48.4778 41.542 48.2064 41.8704 47.953C42.1648 47.7258 42.4713 47.4152 42.747 47.1395L40.6257 45.0181C40.4699 45.174 40.3508 45.2929 40.2467 45.3921C40.1422 45.4916 40.0781 45.5467 40.0376 45.5779C39.9982 45.6083 40.01 45.5934 40.0624 45.5702C40.1248 45.5426 40.2131 45.5173 40.3145 45.5122L40.4639 48.5085ZM38.0558 47.3734C38.3577 47.6204 38.6935 47.8989 39.0091 48.0957C39.361 48.3152 39.848 48.5392 40.4639 48.5085L40.3144 45.5122C40.4157 45.5072 40.5062 45.5236 40.571 45.5449C40.6254 45.5627 40.6387 45.5764 40.5964 45.5501C40.5531 45.523 40.4837 45.4745 40.3699 45.3859C40.2564 45.2976 40.1261 45.1911 39.9555 45.0516L38.0558 47.3734ZM34.3767 44.3632L38.0558 47.3734L39.9555 45.0516L36.2764 42.0413L34.3767 44.3632ZM34.2658 44.2629L34.2659 44.2629L36.3872 42.1416L36.3872 42.1416L34.2658 44.2629ZM33.4419 43.2577C33.0428 43.423 32.7913 43.1892 33.0582 43.3487C33.3269 43.5094 33.7019 43.8111 34.3766 44.3632L36.2764 42.0413C35.6805 41.5538 35.1026 41.0758 34.5978 40.774C34.0912 40.471 33.2456 40.0918 32.2938 40.4861L33.4419 43.2577ZM33.5625 44.7004C33.6493 43.833 33.7011 43.3544 33.7775 43.0508C33.8534 42.7493 33.8409 43.0924 33.4418 43.2577L32.2938 40.4861C31.3419 40.8803 31.0122 41.7463 30.8682 42.3189C30.7247 42.8892 30.654 43.6358 30.5774 44.4019L33.5625 44.7004ZM33.0894 49.4317L33.5625 44.7004L30.5774 44.4019L30.1043 49.1332L33.0894 49.4317ZM32.1893 51.937C32.6465 51.5232 32.8324 51.0205 32.9261 50.6165C33.0101 50.2542 33.0506 49.8197 33.0894 49.4317L30.1043 49.1332C30.0824 49.3525 30.0655 49.5199 30.0477 49.6626C30.0299 49.8057 30.0152 49.8891 30.0036 49.9389C29.9924 49.9873 29.992 49.9683 30.0179 49.9172C30.0487 49.8563 30.101 49.7808 30.1763 49.7127L32.1893 51.937ZM29.6068 52.5834C29.9968 52.5834 30.4331 52.5863 30.802 52.5388C31.2133 52.4858 31.732 52.3509 32.1893 51.937L30.1763 49.7127C30.2515 49.6446 30.3319 49.6001 30.3955 49.5755C30.4489 49.5548 30.4678 49.557 30.4185 49.5634C30.3678 49.5699 30.2834 49.5763 30.1392 49.5798C29.9955 49.5833 29.8272 49.5834 29.6068 49.5834V52.5834ZM23.3934 52.5834H29.6068V49.5834H23.3934V52.5834ZM20.8109 51.937C21.2681 52.3509 21.7869 52.4858 22.1982 52.5388C22.5671 52.5863 23.0034 52.5834 23.3934 52.5834V49.5834C23.173 49.5834 23.0047 49.5833 22.861 49.5798C22.7168 49.5763 22.6324 49.5699 22.5817 49.5634C22.5323 49.557 22.5513 49.5548 22.6046 49.5755C22.6683 49.6001 22.7487 49.6446 22.8239 49.7127L20.8109 51.937ZM19.9108 49.4317C19.9496 49.8197 19.9901 50.2542 20.0741 50.6165C20.1678 51.0205 20.3536 51.5232 20.8109 51.937L22.8239 49.7127C22.8991 49.7808 22.9514 49.8563 22.9823 49.9172C23.0081 49.9683 23.0078 49.9873 22.9966 49.9389C22.985 49.8891 22.9703 49.8057 22.9524 49.6626C22.9346 49.5199 22.9178 49.3525 22.8959 49.1332L19.9108 49.4317ZM19.4377 44.7014L19.9108 49.4317L22.8959 49.1332L22.4228 44.4029L19.4377 44.7014ZM19.5584 43.2587C19.1594 43.0934 19.1469 42.7502 19.2227 43.0517C19.2991 43.3554 19.351 43.8339 19.4377 44.7014L22.4228 44.4029C22.3462 43.6368 22.2756 42.8902 22.1321 42.3198C21.9881 41.7473 21.6583 40.8813 20.7065 40.487L19.5584 43.2587ZM18.6236 44.3642C19.2983 43.8121 19.6734 43.5104 19.9421 43.3497C20.2089 43.1901 19.9575 43.4239 19.5584 43.2587L20.7065 40.487C19.7546 40.0928 18.9091 40.472 18.4024 40.7749C17.8976 41.0768 17.3197 41.5548 16.7239 42.0423L18.6236 44.3642ZM14.9443 47.3745L18.6236 44.3642L16.7239 42.0423L13.0445 45.0527L14.9443 47.3745ZM12.5362 48.5096C13.1521 48.5403 13.6391 48.3163 13.991 48.0968C14.3066 47.9001 14.6424 47.6215 14.9443 47.3745L13.0445 45.0527C12.8739 45.1922 12.7436 45.2987 12.6302 45.387C12.5164 45.4756 12.447 45.5241 12.4036 45.5512C12.3614 45.5775 12.3746 45.5638 12.429 45.546C12.4939 45.5247 12.5843 45.5083 12.6856 45.5133L12.5362 48.5096ZM10.253 47.1406C10.5288 47.4163 10.8353 47.7269 11.1297 47.9541C11.458 48.2075 11.9203 48.4789 12.5362 48.5096L12.6856 45.5133C12.787 45.5184 12.8753 45.5438 12.9377 45.5713C12.9901 45.5945 13.0019 45.6094 12.9625 45.579C12.922 45.5478 12.8578 45.4927 12.7534 45.3932C12.6493 45.294 12.5302 45.1751 12.3744 45.0192L10.253 47.1406ZM5.85952 42.747L10.253 47.1406L12.3744 45.0192L7.98084 40.6257L5.85952 42.747ZM4.49047 40.4639C4.52119 41.0798 4.7926 41.542 5.04596 41.8704C5.27316 42.1648 5.58375 42.4713 5.85952 42.747L7.98084 40.6257C7.82498 40.4699 7.70605 40.3508 7.6069 40.2467C7.50741 40.1422 7.45224 40.078 7.42103 40.0376C7.39063 39.9982 7.40559 40.01 7.42873 40.0624C7.45632 40.1248 7.48169 40.2131 7.48674 40.3144L4.49047 40.4639ZM5.62554 38.0558C5.37858 38.3577 5.10002 38.6935 4.90325 39.0091C4.68382 39.361 4.45975 39.8479 4.49047 40.4639L7.48674 40.3144C7.4918 40.4157 7.47534 40.5062 7.4541 40.571C7.43629 40.6254 7.42258 40.6387 7.4489 40.5964C7.47593 40.5531 7.52445 40.4837 7.61305 40.3699C7.70135 40.2564 7.80784 40.1261 7.94741 39.9555L5.62554 38.0558ZM8.63586 34.3766L5.62554 38.0558L7.94741 39.9555L10.9577 36.2763L8.63586 34.3766ZM9.74136 33.4417C9.57607 33.0427 9.80987 32.7912 9.65031 33.0581C9.48963 33.3268 9.18792 33.7018 8.63586 34.3766L10.9577 36.2763C11.4452 35.6804 11.9232 35.1025 12.2251 34.5977C12.5281 34.0911 12.9073 33.2455 12.513 32.2937L9.74136 33.4417ZM8.29863 33.5624C9.16611 33.6492 9.64466 33.701 9.94828 33.7774C10.2498 33.8533 9.90664 33.8408 9.74136 33.4417L12.513 32.2937C12.1187 31.3418 11.2527 31.0121 10.6802 30.8681C10.1098 30.7246 9.3632 30.6539 8.59714 30.5773L8.29863 33.5624ZM3.56848 33.0894L8.29863 33.5624L8.59714 30.5773L3.86699 30.1043L3.56848 33.0894ZM1.06312 32.1893C1.47692 32.6465 1.97968 32.8324 2.38368 32.9261C2.74597 33.0101 3.18042 33.0506 3.56849 33.0894L3.86699 30.1043C3.64767 30.0824 3.48024 30.0655 3.33757 30.0477C3.19443 30.0299 3.11108 30.0151 3.06131 30.0036C3.01284 29.9924 3.03188 29.992 3.08295 30.0179C3.14384 30.0487 3.21941 30.101 3.28748 30.1763L1.06312 32.1893ZM0.416748 29.6068C0.416748 29.9968 0.413834 30.4331 0.461371 30.8019C0.514382 31.2133 0.649313 31.732 1.06312 32.1893L3.28748 30.1763C3.35554 30.2515 3.40006 30.3319 3.4247 30.3955C3.44536 30.4489 3.44312 30.4678 3.43676 30.4185C3.43023 30.3678 3.42386 30.2834 3.42034 30.1392C3.41684 29.9955 3.41675 29.8272 3.41675 29.6068H0.416748ZM0.416748 23.3934V29.6068H3.41675V23.3934H0.416748ZM1.06312 20.8109C0.649313 21.2681 0.514382 21.7869 0.461371 22.1982C0.413834 22.5671 0.416748 23.0034 0.416748 23.3934H3.41675C3.41675 23.173 3.41684 23.0047 3.42034 22.861C3.42386 22.7168 3.43023 22.6324 3.43676 22.5817C3.44312 22.5323 3.44536 22.5512 3.4247 22.6046C3.40006 22.6683 3.35554 22.7487 3.28747 22.8239L1.06312 20.8109ZM3.56848 19.9108C3.18042 19.9496 2.74597 19.9901 2.38368 20.0741C1.97969 20.1678 1.47692 20.3536 1.06312 20.8109L3.28747 22.8239C3.21941 22.8991 3.14384 22.9514 3.08295 22.9823C3.03188 23.0081 3.01284 23.0078 3.06132 22.9965C3.11108 22.985 3.19443 22.9703 3.33758 22.9524C3.48024 22.9346 3.64768 22.9178 3.867 22.8959L3.56848 19.9108ZM8.29956 19.4376L3.56849 19.9108L3.867 22.8959L8.59807 22.4228L8.29956 19.4376ZM9.74228 19.5583C9.90757 19.1593 10.2507 19.1468 9.9492 19.2227C9.64558 19.299 9.16703 19.3509 8.29956 19.4376L8.59807 22.4228C9.36413 22.3462 10.1107 22.2755 10.6811 22.132C11.2536 21.988 12.1197 21.6582 12.5139 20.7064L9.74228 19.5583ZM8.63679 18.6235C9.18885 19.2983 9.49056 19.6733 9.65124 19.942C9.8108 20.2088 9.577 19.9574 9.74228 19.5583L12.5139 20.7064C12.9082 19.7545 12.529 18.909 12.226 18.4023C11.9241 17.8975 11.4462 17.3197 10.9587 16.7238L8.63679 18.6235ZM8.64539 18.6339L8.6454 18.6339L10.9501 16.7134L10.9501 16.7134L8.64539 18.6339ZM5.62566 14.9432L8.63678 18.6235L10.9587 16.7238L7.94753 13.0435L5.62566 14.9432ZM4.49058 12.5352C4.45986 13.1511 4.68393 13.6381 4.90337 13.99C5.10014 14.3056 5.3787 14.6414 5.62566 14.9432L7.94753 13.0435C7.80796 12.8729 7.70146 12.7426 7.61316 12.6292C7.52456 12.5153 7.47605 12.446 7.44902 12.4026C7.42269 12.3604 7.4364 12.3736 7.45422 12.428C7.47546 12.4929 7.49191 12.5833 7.48686 12.6846L4.49058 12.5352ZM5.85964 10.252C5.58387 10.5278 5.27327 10.8343 5.04607 11.1287C4.79271 11.457 4.5213 11.9193 4.49058 12.5352L7.48686 12.6846C7.48181 12.7859 7.45644 12.8743 7.42884 12.9367C7.40571 12.9891 7.39075 13.0009 7.42115 12.9615C7.45236 12.921 7.50753 12.8568 7.60702 12.7524C7.70617 12.6483 7.8251 12.5292 7.98096 12.3734L5.85964 10.252ZM10.2532 5.85852L5.85964 10.252L7.98096 12.3734L12.3745 7.97984L10.2532 5.85852ZM12.5363 4.48946C11.9204 4.52018 11.4582 4.7916 11.1298 5.04495C10.8354 5.27215 10.5289 5.58275 10.2532 5.85852L12.3745 7.97984C12.5303 7.82398 12.6494 7.70505 12.7535 7.6059C12.858 7.50641 12.9221 7.45124 12.9626 7.42003C13.002 7.38963 12.9902 7.40459 12.9378 7.42772C12.8754 7.45532 12.7871 7.48069 12.6858 7.48574L12.5363 4.48946ZM14.9444 5.62454C14.6425 5.37758 14.3067 5.09902 13.9911 4.90225C13.6392 4.68281 13.1522 4.45874 12.5363 4.48946L12.6858 7.48574C12.5844 7.49079 12.494 7.47434 12.4292 7.4531C12.3748 7.43528 12.3615 7.42157 12.4038 7.4479C12.4471 7.47493 12.5165 7.52344 12.6303 7.61204C12.7438 7.70034 12.8741 7.80684 13.0447 7.94641L14.9444 5.62454ZM18.6237 8.63491L14.9444 5.62454L13.0447 7.94641L16.724 10.9568L18.6237 8.63491ZM19.5585 9.74041C19.9576 9.57512 20.209 9.80892 19.9422 9.64936C19.6735 9.48868 19.2984 9.18697 18.6237 8.63491L16.724 10.9568C17.3198 11.4443 17.8977 11.9223 18.4025 12.2241C18.9092 12.5271 19.7547 12.9063 20.7066 12.512L19.5585 9.74041ZM19.4378 8.29768C19.3511 9.16516 19.2992 9.64371 19.2229 9.94733C19.147 10.2488 19.1595 9.90569 19.5585 9.74041L20.7066 12.512C21.6584 12.1178 21.9882 11.2518 22.1322 10.6792C22.2757 10.1089 22.3463 9.36226 22.423 8.5962L19.4378 8.29768ZM19.9108 3.56849L19.4378 8.29768L22.423 8.59619L22.8959 3.867L19.9108 3.56849ZM20.8109 1.06312C20.3536 1.47692 20.1678 1.97968 20.0741 2.38368C19.9901 2.74597 19.9496 3.18042 19.9108 3.56849L22.8959 3.867C22.9178 3.64768 22.9346 3.48024 22.9524 3.33757C22.9703 3.19443 22.985 3.11108 22.9966 3.06131C23.0078 3.01284 23.0081 3.03188 22.9823 3.08295C22.9514 3.14384 22.8991 3.21941 22.8239 3.28748L20.8109 1.06312ZM23.3934 0.416748C23.0034 0.416748 22.5671 0.413834 22.1982 0.461371C21.7869 0.514382 21.2681 0.649313 20.8109 1.06312L22.8239 3.28748C22.7487 3.35554 22.6683 3.40006 22.6046 3.4247C22.5513 3.44536 22.5323 3.44312 22.5817 3.43676C22.6324 3.43023 22.7168 3.42386 22.861 3.42034C23.0047 3.41684 23.173 3.41675 23.3934 3.41675V0.416748ZM29.6068 0.416748H23.3934V3.41675H29.6068V0.416748ZM32.1893 1.06312C31.732 0.649313 31.2133 0.514382 30.802 0.461371C30.4331 0.413834 29.9968 0.416748 29.6068 0.416748V3.41675C29.8272 3.41675 29.9955 3.41684 30.1392 3.42034C30.2834 3.42386 30.3678 3.43023 30.4185 3.43676C30.4678 3.44312 30.4489 3.44536 30.3955 3.4247C30.3319 3.40006 30.2515 3.35554 30.1763 3.28748L32.1893 1.06312ZM34.8334 26.5001C34.8334 31.1025 31.1025 34.8334 26.5001 34.8334V37.8334C32.7593 37.8334 37.8334 32.7593 37.8334 26.5001H34.8334ZM26.5001 18.1667C31.1025 18.1667 34.8334 21.8977 34.8334 26.5001H37.8334C37.8334 20.2409 32.7593 15.1667 26.5001 15.1667V18.1667ZM18.1668 26.5001C18.1668 21.8977 21.8977 18.1667 26.5001 18.1667V15.1667C20.2409 15.1667 15.1668 20.2409 15.1668 26.5001H18.1668ZM26.5001 34.8334C21.8977 34.8334 18.1668 31.1025 18.1668 26.5001H15.1668C15.1668 32.7593 20.2409 37.8334 26.5001 37.8334V34.8334Z" fill="#22242E"/>
</svg>
